<svg xmlns="http://www.w3.org/2000/svg" width="128.523" height="35.103"><g data-name="rh-ansiblefest-2021-logo-pool-reverse-rgb (1)" transform="translate(12.162 12.733)"><path data-name="Path 11236" d="M29.74-1.334h2.845l4.808 11.85h-2.659l-1.2-3.114h-4.891l-1.219 3.114h-2.559Zm3.047 6.772L31.112 1.07l-1.711 4.368Z" fill="#fff"/><path data-name="Path 11237" d="M38.237 1.697h2.319v.693a3.789 3.789 0 0 1 2.473-.859 3.337 3.337 0 0 1 3.484 3.5v5.485h-2.318V5.373a1.716 1.716 0 0 0-1.828-1.841 2.113 2.113 0 0 0-1.811.88v6.111h-2.321Z" fill="#fff"/><path data-name="Path 11238" d="M48.684 7.927a5.146 5.146 0 0 0 2.86 1c1.033 0 1.711-.368 1.711-.931 0-.458-.339-.712-1.1-.83l-1.693-.254c-1.742-.271-2.674-1.134-2.674-2.556 0-1.711 1.422-2.794 3.673-2.794a6.511 6.511 0 0 1 3.624 1.1l-1.118 1.49a5.207 5.207 0 0 0-2.725-.847c-.847 0-1.388.339-1.388.859 0 .474.339.71 1.2.83l1.693.254c1.727.254 2.692 1.151 2.692 2.522 0 1.659-1.643 2.912-3.86 2.912a6.52 6.52 0 0 1-4.049-1.218Z" fill="#fff"/><path data-name="Path 11239" d="M56.418-.674A1.322 1.322 0 1 1 57.74.646a1.322 1.322 0 0 1-1.322-1.32Zm2.489 11.19h-2.319V1.697h2.319Z" fill="#fff"/><path data-name="Path 11240" d="M65.441 10.634a4.514 4.514 0 0 1-2.437-.71v.591h-2.286v-11.85l2.319-.51v4.232a4.09 4.09 0 0 1 2.473-.812 4.53 4.53 0 0 1-.069 9.06Zm-2.4-6.247v3.468a2.972 2.972 0 0 0 2.1.814 2.557 2.557 0 1 0 0-5.114 2.836 2.836 0 0 0-2.104.832Z" fill="#fff"/><path data-name="Path 11241" d="M73.736 10.515h-2.313v-11.85l2.313-.51Z" fill="#fff"/><path data-name="Path 11242" d="M79.881 10.686a4.592 4.592 0 0 1-4.74-4.571 4.459 4.459 0 1 1 8.907.169v.614h-6.571a2.54 2.54 0 0 0 2.5 1.841 2.776 2.776 0 0 0 1.947-.712l1.519 1.39a5.268 5.268 0 0 1-3.562 1.269ZM77.46 5.235h4.317a2.278 2.278 0 0 0-2.15-1.778 2.215 2.215 0 0 0-2.167 1.778Z" fill="#fff"/><path data-name="Path 11243" d="M85.856-1.334h8.48v1.151h-7.177v4.229h4.706v1.135h-4.706v5.332h-1.3Z" fill="#fff"/><path data-name="Path 11244" d="M98.485 10.672a4.322 4.322 0 0 1-4.367-4.4 4.242 4.242 0 0 1 4.181-4.368 4.163 4.163 0 0 1 4.013 4.368v.389h-6.96a3.191 3.191 0 0 0 3.19 2.908 3.672 3.672 0 0 0 2.331-.779l.779.829a5.019 5.019 0 0 1-3.167 1.053Zm-3.1-5.011h5.672a2.842 2.842 0 0 0-5.672 0Z" fill="#fff"/><path data-name="Path 11245" d="M104.037 8.535a4.059 4.059 0 0 0 2.758 1.135c1.35 0 2.3-.627 2.3-1.524 0-.728-.491-1.134-1.574-1.287l-1.472-.2c-1.692-.254-2.5-1-2.5-2.285 0-1.422 1.32-2.473 3.182-2.473a5.421 5.421 0 0 1 3.335 1.118l-.66.847a4.752 4.752 0 0 0-2.742-.949c-1.168 0-1.963.576-1.963 1.405 0 .728.457 1.084 1.574 1.253l1.473.2c1.693.237 2.539 1 2.539 2.3 0 1.472-1.489 2.59-3.436 2.59a5.159 5.159 0 0 1-3.572-1.322Z" fill="#fff"/><path data-name="Path 11246" d="M112.569 3.102h-1.828V2.036h1.828v-2.15l1.236-.323v2.473h2.556v1.066h-2.556v5.2c0 .914.368 1.27 1.3 1.27a3.025 3.025 0 0 0 1.236-.221v1.1a4.812 4.812 0 0 1-1.49.221c-1.472 0-2.285-.712-2.285-2.049Z" fill="#fff"/><circle data-name="Ellipse 54" cx="15.294" cy="15.294" r="15.294" transform="rotate(-80.76 4.183 15.88)" fill="#5cbec1"/><path data-name="Path 11247" d="M12.68 10.887 6.591-3.764a.982.982 0 0 0-.94-.647 1.016 1.016 0 0 0-.969.647L-2 12.311H.282l2.646-6.626 7.894 6.381a1.276 1.276 0 0 0 .844.368 1.091 1.091 0 0 0 1.118-1.092 1.437 1.437 0 0 0-.104-.455ZM5.65-1.132l3.957 9.769-5.981-4.714Z" fill="#fff"/></g></svg>